<svg width="135" height="29" viewBox="0 0 135 29" fill="none" xmlns="http://www.w3.org/2000/svg"><path d="M25.613 0H4.174C1.84 0 0 1.795 0 4.005v20.921C0 27.205 1.84 29 4.174 29h21.51c2.264 0 4.103-1.795 4.103-4.074V4.005c0-2.21-1.91-4.005-4.174-4.005zM14.505 14.776l-3.821 3.798s-.07.069-.07.138.07.138.14.138h.637v5.179c0 .207-.212.414-.424.414H5.165c-.212 0-.425-.207-.425-.414V4.97c0-.207.213-.414.425-.414h5.943c.213 0 .425.138.425.414v5.179h-.637c-.07 0-.141.069-.141.207 0 .07 0 .07.07.138l3.821 3.798c.07.069.07.138.07.276-.07 0-.14.138-.211.207zm10.542 9.253a.403.403 0 01-.425.414H18.68c-.212 0-.425-.207-.425-.414V18.85h.637c.071 0 .142-.069.142-.138 0-.07 0-.07-.071-.138l-3.82-3.798c-.072-.069-.072-.138-.072-.276 0-.069 0-.207.071-.276l3.821-3.798c0-.069.07-.069.07-.138s-.07-.138-.14-.207h-.638v-5.11c0-.207.142-.414.425-.414h5.943c.212 0 .425.138.425.414V24.03zM49.952 10.426c-2.689 0-4.74 1.934-4.74 4.42 0 2.416 2.051 4.35 4.67 4.35 2.688 0 4.74-1.934 4.74-4.42.07-2.416-1.981-4.35-4.67-4.35zm1.769 4.42c0 .966-.708 1.863-1.769 1.863-1.132 0-1.84-.897-1.84-1.933 0-.966.708-1.864 1.77-1.864 1.202 0 1.839.897 1.839 1.933zm19.528-4.282h-7.5c-.142 0-.212.07-.212.207v1.934c0 .138.07.207.212.207h2.335v5.8c0 .138.07.207.212.207h2.476c.142 0 .213-.069.213-.207v-5.8h2.335c.141 0 .212-.07.212-.207V10.77c-.07-.069-.142-.207-.283-.207zm-11.887 3.038c-.92-.138-1.132-.345-1.132-.552 0-.207.213-.345.637-.345.778 0 1.627.207 2.406.69.07.07.212.07.283-.069l1.132-1.588c.07-.069.07-.207-.071-.276-.99-.69-2.123-1.036-3.75-1.036-2.406 0-3.68 1.243-3.68 2.831 0 1.795 1.699 2.348 3.61 2.693.919.207 1.202.345 1.202.552 0 .207-.212.346-.708.346-.99 0-1.98-.277-2.83-.898-.07-.07-.212-.07-.283.069l-1.273 1.45a.206.206 0 000 .276c1.061.829 2.618 1.312 4.245 1.312 2.335 0 3.82-1.105 3.82-2.83.072-1.589-1.414-2.28-3.608-2.625zm70.542-3.038h-3.113c-.142 0-.213.07-.213.207v8.01c0 .138.071.207.213.207h2.971c3.467 0 5.236-1.795 5.236-4.28.071-2.487-1.698-4.144-5.094-4.144zm2.193 4.281c0 1.243-.849 1.726-2.193 1.726h-.425V13.05h.495c1.274 0 2.123.552 2.123 1.795zm-87.876-4.28h-2.476c-.142 0-.213.068-.213.206v2.762h-2.618v-2.762c0-.138-.07-.207-.212-.207h-2.476c-.142 0-.212.07-.212.207v8.01c0 .138.07.207.212.207h2.476c.142 0 .212-.069.212-.207V15.95h2.618v2.83c0 .139.071.208.213.208h2.476c.142 0 .212-.069.212-.207v-7.94c0-.139-.07-.277-.212-.277zm55.612 0h-2.476c-.07 0-.212.068-.212.137l-.99 3.246a.223.223 0 01-.425 0l-1.132-3.315c0-.069-.142-.138-.213-.138h-2.193c-.07 0-.212.07-.212.138l-1.132 3.315a.223.223 0 01-.425 0l-.99-3.246c0-.069-.142-.138-.213-.138h-2.547c-.141 0-.283.138-.212.276l2.689 8.079c0 .07.141.138.212.138h2.193c.07 0 .142-.069.212-.138l1.274-3.452a.223.223 0 01.425 0l1.273 3.452c0 .07.142.138.212.138h2.194c.07 0 .212-.069.212-.138l2.689-8.079c0-.069-.071-.276-.213-.276zm25.825 6.075h-3.82v-5.8c0-.138-.071-.207-.212-.207h-2.477c-.141 0-.212.07-.212.207v8.01c0 .138.071.207.212.207h6.509c.142 0 .213-.069.213-.207v-2.002c0-.139-.071-.208-.213-.208zm-46.06.07H75.21V15.811h4.033c.142 0 .212-.07.212-.207v-1.588c0-.138-.07-.207-.212-.207h-4.033V12.912h4.316c.142 0 .212-.07.212-.207V10.84c0-.138-.07-.207-.212-.207h-6.934c-.141 0-.212.07-.212.207v8.01c0 .138.07.207.212.207h7.005c.141 0 .212-.069.212-.207v-1.864c0-.207-.07-.277-.212-.277zm24.834-6.284c-2.688 0-4.74 1.934-4.74 4.42 0 2.416 2.052 4.35 4.67 4.35 2.688 0 4.74-1.934 4.74-4.42.071-2.416-1.981-4.35-4.67-4.35zm1.769 4.42c0 .966-.707 1.863-1.769 1.863-1.132 0-1.839-.897-1.839-1.933 0-.966.707-1.864 1.769-1.864 1.202 0 1.839.897 1.839 1.933zm10.259 1.518c-.07-.069-.07-.276.071-.276.92-.483 1.486-1.312 1.486-2.486 0-.897-.283-1.519-.778-2.002-.637-.621-1.557-.967-3.113-.967h-4.033c-.142 0-.213.07-.213.207v8.01c0 .138.071.207.213.207h2.476c.142 0 .212-.069.212-.207v-2.21h.637l1.557 2.348c.07.07.141.07.212.07h2.759c.142 0 .283-.208.213-.346l-1.699-2.348zm-1.344-2.555c0 .553-.424.83-1.132.83h-1.273V12.98h1.273c.708 0 1.132.276 1.132.829zM87.31 16.64h-3.82v-5.8c0-.138-.072-.207-.213-.207h-2.476c-.142 0-.213.07-.213.207v8.01c0 .138.071.207.213.207h6.509c.141 0 .212-.069.212-.207v-2.002c0-.139-.07-.208-.212-.208z" fill="#000"/></svg>