<svg width="212" height="238" viewBox="0 0 212 238" fill="none" xmlns="http://www.w3.org/2000/svg"><g clip-path="url(#clip0_2_2)" fill="#444642"><path d="M19.622 196.532c-2.245 0-2.9 0-5.24.093l-.094-.093c0-2.153 0-4.305.094-6.457 0-1.404.094-2.714.094-4.118 0-2.152-.094-3.65-.188-6.27l.094-.093c2.34 0 2.901 0 5.24-.094l.094.094c-.094 2.433-.094 3.836-.094 6.644 0 3.369.094 6.831.188 10.2l-.188.094zM34.502 196.532c-1.31-1.872-1.404-2.059-2.714-3.743-1.03-1.498-4.492-6.083-4.492-6.083l.374 9.732-.093.187c-1.778 0-2.246 0-4.024.094l-.187-.094c.093-1.684.093-2.62.093-4.117 0-4.211-.093-8.422-.28-12.727l.187-.187h2.152c.655 0 1.404-.094 2.059-.094l.187.094c1.123 1.591 1.404 2.058 2.714 3.743 1.31 1.872 1.871 2.527 3.743 5.147 0-4.492 0-5.334-.093-8.797l.093-.093 3.93-.094.188.094v10.668c0 2.246 0 3.462.093 6.083l-.187.187-3.369.093-.374-.093zM48.539 183.15v4.492c0 2.901.093 5.708.093 8.703l-.187.187c-2.058 0-2.714 0-4.96.093l-.187-.187c.094-4.96.094-6.363.188-13.288l-3.837.093-.094-.093.187-3.463.188-.187h12.633c-.094 1.591-.187 2.059-.187 3.556l-.187.187-3.65-.093zM58.926 189.513v3.276c1.872 0 3.65-.094 6.083-.188l.187.188-.28 3.556-.188.187h-4.585c-2.62 0-4.024.093-6.27.093l-.094-.187c.094-2.807.094-4.211.094-7.486 0-5.802-.094-6.738-.187-9.171l.187-.187h10.762l.093.093-.187 3.276-.187.093h-5.521v3.088l5.24-.093.188.187-.188 3.182-.187.187h-4.96v-.094zM72.776 190.262c0 2.901 0 3.462.188 6.083l-.188.187-4.96.093-.093-.187c.094-3.088.094-6.176.094-9.264 0-3.837-.094-5.241-.281-7.487l.093-.093h5.522c2.34-.094 4.585-.094 5.989 1.029.655.468 1.684 1.685 1.684 3.837 0 1.123-.28 1.965-.561 2.527-.655 1.403-1.591 1.778-2.34 2.152l2.153 4.211 1.59 2.807-.093.188-5.053.187-.281-.187-1.31-2.995-1.498-3.182-.655.094zm0-3.275c.843 0 3.182.093 3.182-2.153 0-1.029-.561-1.871-1.965-1.871h-1.217v4.024zM95.049 196.532c-1.31-1.872-1.404-2.059-2.714-3.743-1.03-1.498-4.492-6.083-4.492-6.083l.374 9.732-.093.187c-1.778 0-2.246 0-4.024.094l-.188-.094c.094-1.684.094-2.62.094-4.117 0-4.211-.094-8.422-.28-12.727l.186-.187h2.06c.654 0 1.403-.094 2.058-.094l.187.094c1.123 1.591 1.404 2.058 2.714 3.743 1.31 1.872 1.872 2.527 3.743 5.147 0-4.492 0-5.334-.093-8.797l.093-.093 3.93-.094.188.094v10.668c0 2.246 0 3.462.093 6.083l-.187.187-3.369.093-.28-.093zM105.623 192.414l-.936 4.024-.187.094h-4.398l-.094-.187 5.241-16.658.187-.093 6.083-.094.187.094 4.866 16.751-.187.187h-2.433c-.842 0-1.591.093-2.433.093l-.187-.093-.936-4.118h-4.773zm3.931-3.462l-.562-2.527-.749-3.65c-.28 1.311-.467 1.872-.935 3.744l-.655 2.433h2.901zM123.591 183.15v4.492c0 2.901.093 5.708.093 8.703l-.187.187c-2.059 0-2.714 0-4.96.093l-.187-.187c.094-4.96.094-6.363.187-13.288l-3.836.093-.094-.093.187-3.463.187-.187H127.615c-.094 1.591-.187 2.059-.187 3.556l-.188.187-3.649-.093zM134.259 196.532c-2.246 0-2.901 0-5.241.093l-.093-.093c0-2.153 0-4.305.093-6.457v-4.118c0-2.152 0-3.65-.187-6.27l.094-.093c2.339 0 2.901 0 5.24-.094l.094.094c-.094 2.433-.094 3.836-.094 6.644 0 3.369.094 6.831.188 10.2l-.094.094zM150.729 193.444c-1.684 2.901-4.866 3.369-6.925 3.369-5.147 0-7.861-3.089-7.861-8.61 0-1.965.281-4.024 1.217-5.708 1.029-1.685 2.901-3.463 6.738-3.463 1.497 0 3.93.281 5.521 1.872 1.31 1.216 2.34 3.182 2.433 6.831 0 1.404-.093 3.931-1.123 5.709zm-6.738-10.575c-2.246 0-2.807 2.34-2.807 5.334 0 1.497.187 5.053 2.714 5.053 2.526 0 2.714-3.275 2.714-5.24-.094-2.807-.562-5.147-2.621-5.147zM164.673 196.532c-1.31-1.872-1.404-2.059-2.714-3.743-1.03-1.498-4.492-6.083-4.492-6.083l.374 9.732-.093.187c-1.778 0-2.246 0-4.024.094l-.187-.094c.093-1.684.093-2.62.093-4.117 0-4.211-.093-8.422-.281-12.727l.188-.187h2.152c.655 0 1.404-.094 2.059-.094l.187.094c1.123 1.591 1.404 2.058 2.714 3.743 1.31 1.872 1.871 2.527 3.743 5.147 0-4.492 0-5.334-.094-8.797l.094-.093 3.93-.094.188.094v10.668c0 2.246 0 3.462.093 6.083l-.187.187-3.369.093-.374-.093zM175.341 192.414l-.936 4.024-.187.094h-4.398l-.094-.187 5.241-16.658.187-.093 6.083-.094.187.094 4.866 16.751-.187.187h-2.433c-.843 0-1.591.093-2.433.093l-.188-.093-.935-4.118h-4.773zm3.837-3.462l-.562-2.527-.748-3.65c-.281 1.311-.468 1.872-.936 3.744l-.655 2.433h2.901zM193.028 179.594c0 .561-.094 1.216-.094 1.871-.093 2.059-.093 8.984-.093 11.324 2.994 0 3.556-.094 5.989-.188l.093.188-.28 3.556-.094.187c-5.147-.094-6.457 0-10.762.093l-.093-.187v-3.088c0-2.059 0-4.118-.094-6.083 0-4.679 0-5.147-.094-7.58l.188-.093 5.147-.094.187.094zM18.312 202.989c.468 2.246.843 4.492 1.31 6.738.468 1.965.936 4.024 1.404 5.989.28-1.217.468-2.433.749-3.65 1.03-4.96 1.216-5.521 1.778-8.89l.187-.187 4.492-.094.094.094c-3.089 10.107-3.182 10.387-4.867 16.751l-.187.187c-2.34 0-3.088 0-5.428.094l-.187-.094-1.123-4.211-1.403-4.773c-.562-1.684-1.03-3.369-1.498-5.053a27.515 27.515 0 01-.748-2.62l.093-.188c.936 0 1.872 0 2.808-.093.842-.094 1.59-.094 2.433-.187l.093.187zM44.047 216.932c-1.684 2.901-4.866 3.369-6.925 3.369-5.147 0-7.86-3.088-7.86-8.609 0-1.965.28-4.024 1.216-5.709 1.03-1.684 2.9-3.462 6.738-3.462 1.497 0 3.93.281 5.52 1.872 1.311 1.216 2.34 3.181 2.434 6.831.094 1.404-.094 3.93-1.123 5.708zm-6.738-10.668c-2.246 0-2.807 2.34-2.807 5.334 0 1.498.187 5.054 2.714 5.054 2.526 0 2.713-3.276 2.713-5.241 0-2.714-.561-5.147-2.62-5.147zM52.75 203.082c0 .562-.093 1.217-.093 1.872-.094 2.059-.094 8.984-.094 11.323 2.994 0 3.556-.093 5.99-.187l.093.187-.281 3.556-.094.188c-5.147-.094-6.457 0-10.761.093l-.094-.187v-3.088c0-2.059 0-4.118-.094-6.083 0-4.679 0-5.147-.093-7.58l.187-.094 5.147-.093.187.093zM65.477 203.082c-.094 3.182-.187 6.364-.187 9.546 0 .935 0 1.965.28 2.714.281.935.937 1.497 2.06 1.497.467 0 1.122-.094 1.684-.655.749-.749.749-1.965.749-3.743 0-4.212-.094-6.645-.188-9.359l.094-.093 4.398-.094.187.094-.093 9.919v.936c-.094 1.778-.187 3.931-2.153 5.241-1.029.748-2.713 1.216-4.96 1.216-1.684 0-4.491-.28-5.895-2.058-1.123-1.404-1.217-3.182-1.217-4.68v-.748c0-4.96 0-5.896-.093-9.639l.093-.094c2.247 0 2.808 0 5.148-.093l.093.093zM88.591 219.927c-1.31-1.872-1.403-2.059-2.713-3.743-1.03-1.498-4.492-6.083-4.492-6.083l.374 9.732-.094.188c-1.778 0-2.245 0-4.023.093l-.188-.093c.094-1.685.094-2.621.094-4.118 0-4.211-.094-8.422-.28-12.633l.186-.188h2.153c.655 0 1.403-.093 2.058-.093l.188.093c1.123 1.591 1.403 2.059 2.713 3.744 1.31 1.871 1.872 2.526 3.744 5.147 0-4.492 0-5.334-.094-8.797l.094-.094 3.93-.093.187.093v10.669c0 2.246 0 3.462.094 6.082l-.187.188-3.37.093-.374-.187zM103.564 206.639v4.491c0 2.901.094 5.709.094 8.703l-.187.188c-2.059 0-2.714 0-4.96.093l-.187-.187c.094-4.96.094-6.363.187-13.288l-3.837.093-.093-.093.187-3.463.187-.187h12.633c-.093 1.591-.187 2.059-.187 3.556l-.187.187-3.65-.093zM114.513 213.002v3.275c1.872 0 3.65-.093 6.083-.187l.187.187-.28 3.556-.188.188h-4.585c-2.62 0-4.024.093-6.27.093l-.094-.187c.094-2.807.094-4.211.094-7.486 0-5.802-.094-6.738-.187-9.171l.187-.188h10.762l.093.094-.187 3.275-.187.094h-5.521v3.088l5.24-.093.187.187-.187 3.181-.187.188h-4.96v-.094zM128.551 213.002v3.275c1.871 0 3.649-.093 6.082-.187l.187.187-.28 3.556-.187.188h-4.586c-2.62 0-4.024.093-6.27.093l-.093-.187c.093-2.807.093-4.211.093-7.486 0-5.802-.093-6.738-.187-9.171l.187-.188h10.762l.094.094-.188 3.275-.187.094h-5.521v3.088l5.24-.093.188.187-.188 3.181-.187.188h-4.959v-.094zM142.307 213.751c0 2.901 0 3.462.187 6.082l-.187.188-4.96.093-.093-.187c.093-3.088.093-6.176.093-9.265 0-3.836-.093-5.24-.281-7.486l.094-.094h5.521c2.34-.093 4.586-.093 5.989 1.03.655.468 1.685 1.684 1.685 3.837 0 1.123-.281 1.965-.562 2.526-.655 1.404-1.591 1.778-2.339 2.153l2.152 4.211 1.591 2.807-.094.187-5.053.188-.281-.188-1.31-2.994-1.497-3.182-.655.094zm0-3.369c.936 0 3.182.093 3.182-2.153 0-1.029-.562-1.871-1.966-1.871h-1.216v4.024zM169.913 219.927c0-1.404.094-3.743.094-5.147v-1.965h-2.059c-.936 0-1.684 0-2.807.093v7.019l-.094.094-5.053.093-.094-.093c.094-6.551.094-8.891.094-9.639 0-2.34-.094-4.492-.094-7.112l.094-.188h1.965c1.029 0 2.059 0 3.182-.093l.093.187v5.989h4.866l-.093-5.989.093-.094 5.147-.093.094.093c-.094 3.089-.094 6.177-.094 9.265 0 2.995 0 4.679.094 7.58l-.094.187c-2.246 0-2.994 0-5.147.094l-.187-.281zM192.84 224.606c-1.216-.749-1.497-.842-3.181-1.684-1.217-.655-2.527-1.311-3.743-1.966-.562-.28-1.03-.468-1.498-.655l-.281-.093c-.467-.094-1.122-.187-1.59-.375-2.901-.935-4.773-3.649-4.773-8.235 0-5.24 2.34-8.89 7.954-8.89 1.872 0 3.837.374 5.241 1.591 2.152 1.778 2.714 4.679 2.714 7.486 0 2.34-.375 3.744-1.123 4.867-1.03 1.591-2.153 2.058-3.182 2.526 2.152.749 2.995 1.03 5.241 1.685l.187.281c-.843 1.31-1.123 1.778-1.966 3.462zm-4.772-16.564c-.562-1.684-1.778-1.778-2.152-1.778-2.246 0-2.808 2.246-2.808 5.334 0 1.123.094 5.054 2.714 5.054.749 0 2.059-.468 2.433-2.527.187-.842.281-2.059.281-2.714 0-1.965-.375-2.994-.468-3.369zM156.344 26.495c17.593 6.083 26.483 22.834 24.986 36.684 0 0-8.235-25.828-24.986-36.684zM60.517 157.696c-18.248-3.837-29.197-19.278-29.384-33.221 0 0 11.323 24.611 29.384 33.221z"/><path d="M104.22 13.768c-41.082 0-74.49 33.409-74.49 74.49 0 41.083 33.407 74.491 74.49 74.491 41.081 0 74.49-33.408 74.49-74.49 0-41.082-33.409-74.49-74.49-74.49zM34.127 88.353c0-18.81 7.393-35.841 19.465-48.38v10.574c0 .561.468 1.31 1.123 1.497.468.187.936.094 1.31-.187 1.217-1.217 1.872-2.246 2.62-3.837 1.03-3.182 1.591-3.556 1.779-3.65h.187c1.216-.842 2.62-1.497 4.024-2.058.655-.281 1.31-.562 1.871-.843 1.498-.655 2.153-1.778 2.62-2.526.094-.187.188-.375.281-.468 0 0 .094 0 .094.093.094.281.561 2.34-6.083 11.137-2.994 3.65-3.462 4.772-3.462 9.451 0 .936.561 2.433 1.03 3.837.28.842.654 1.685.748 2.246.28 2.059-.28 3.463-1.404 5.053-1.404 1.778-1.871 3.744-1.31 5.615V76c.842 1.59 3.462 8.422 2.995 9.92v.093l-.75-1.497c-.093-.281-.186-.562-.373-.749v-.094c-.094-.093-.188-.28-.375-.561-.936-1.591-2.9-4.866-5.427-5.428-2.62-.374-4.867.562-6.738 2.714-1.31 1.59-2.34 3.93-2.62 6.176-.843 4.68-.188 11.792 4.023 16.564 2.06 2.153 4.68 3.182 7.861 2.901 2.34-.093 4.96-.842 8.142-2.246 3.556-1.778 7.018-3.462 10.668-.936.655.468 1.497 1.03 2.246 1.591 1.872 1.404 4.024 2.995 6.363 3.556.375.094.75.281 1.217.468.842.375 1.965.749 3.743 1.31.375.094.655.188.936.375-2.059 4.772-.749 15.628.655 20.213 1.965 6.27 5.053 10.388 9.92 13.195 2.339 1.591 3.649 2.34 4.398 2.62-10.949 2.059-16.564-2.152-21.056-5.521-1.403-1.029-2.62-2.059-4.024-2.714a119.78 119.78 0 00-8.328-3.649c-2.995-1.217-5.896-2.34-8.89-4.024-3.276-1.778-6.925-5.896-7.955-7.113-1.217-1.59-1.217-4.304-1.31-6.831 0-.936 0-1.872-.094-2.62-.374-3.276-1.403-4.679-2.714-6.551-.561-.842-1.216-1.778-1.871-2.994-3.65-6.645-8.61-14.131-15.815-15.254.28-.28.28-.468.28-.562zm11.043 14.131c1.872 2.808 3.182 5.709 4.211 8.516.374 1.217.374 3.182.374 5.24 0 1.404 0 2.808.188 4.212.842 7.018 8.141 10.481 13.943 13.288.749.374 1.404.655 2.059 1.029 1.778.936 3.65 1.872 5.428 2.901 1.778.936 3.65 1.966 5.427 2.902a79.707 79.707 0 016.177 3.462c1.965 1.217 4.117 2.433 6.27 3.462 3.462 1.779 8.515 2.808 13.382 2.808 4.398 0 8.515-.842 11.136-2.808.374-.374.374-.655.28-.935-.187-.749-1.216-1.217-3.462-2.059-1.497-.562-3.182-1.217-4.585-2.059-13.57-7.767-12.634-17.593-9.733-30.601.094-.187.187-.468.187-.748 0-1.311-1.403-2.901-2.713-3.463-1.03-.561-3.557-1.31-6.083-1.965-1.498-.374-2.808-.749-3.837-1.123-1.778-.468-2.995-1.591-4.305-2.808-.374-.374-.748-.655-1.216-1.029-3.744-2.807-6.364-4.398-10.575-2.527-.655.281-1.404.656-2.152 1.03-4.305 2.246-9.733 4.96-13.382 1.591-3.463-3.182-4.68-9.078-4.024-13.289.374-2.714 2.152-6.083 4.398-6.831 1.31-.374 2.714.093 4.117 1.59 2.153 2.34 2.34 4.68 2.62 6.364.094 1.123.188 2.059.843 2.433h.093c.656.375 1.779-.28 3.276-1.216.28-.187.468-.281.655-.375h.093l.094-.093c1.778-1.778 1.31-6.177-1.497-13.289-.094-.187-.187-.468-.187-.561-.749-1.778-.655-3.463.28-4.96 1.591-2.527 2.527-8.142 1.872-10.949-1.217-6.831 1.497-9.639 5.99-14.411l.093-.094c1.59-2.527 2.34-5.428 1.684-7.486-.374-1.404-1.216-2.34-2.526-2.901a.597.597 0 00-.562 0c-.374.093-.562.561-.842 1.216-.468 1.03-1.123 2.62-2.62 2.995-.562.187-1.404.374-2.153.561-1.59.375-3.462.936-4.585 1.498-.375.187-.562.655-.749 1.59-.187.936-.655 2.62-1.59 4.68.373-2.808.654-8.516 1.31-11.792 4.678-4.024 9.825-7.486 15.44-10.2 6.832 6.457 10.388 7.767 10.481 7.86.468.188 1.03.469 1.778.75 1.778.654 4.211 1.59 4.586 3.181.187.842-.094 1.965-1.123 3.182-.655.842-1.498 1.59-2.34 2.433-2.34 2.059-4.866 4.492-4.21 8.048.186 1.217 2.994 6.644 5.427 7.674.842.28 1.403.093 1.684-.188h.094c.936.094 2.9 2.808 3.93 4.212.28.374.562.748.749 1.029.374.374.748.468 1.123.468.374 0 .842-.187 1.216-.468.562-.749 1.31-1.404 2.06-2.059 1.871-1.684 3.836-3.462 3.462-6.831-.281-1.217-.749-2.246-1.217-3.276-.561-1.122-1.029-2.245-1.31-3.836 0-1.685 0-1.778.281-3.463.655-1.216 1.497-2.526 2.152-2.62.094 0 .281-.094.749.28 3.556 2.62 4.679 5.054 4.304 9.452 0 .655.375 1.31.936 1.591.468.187 1.03.094 1.404-.28 1.497-1.779 5.896-6.083 6.363-7.3l.094-.093v-.188c0-.842-1.217-2.9-3.556-6.27 0 0-.374-.561-1.497-1.684-.843-.655-1.03-1.217-1.03-1.404 0-.093.187-.187.842-.374 5.709-1.217 11.23 2.901 14.88 5.521 1.871 1.591 2.807 2.808 2.807 2.808.936 3.275-.468 6.176-4.398 8.796-2.527 1.778-5.521 3.088-8.516 4.305-5.615 2.152-11.23 4.492-11.23 10.481 0 5.147.655 22.553 8.891 28.355 3.275 2.246 7.112 2.433 11.791.655 2.059-.842 3.649-.749 4.96.187 4.024 2.901 3.836 13.476 3.743 18.061v1.591c0 3.743 1.497 7.393 3.088 10.856 1.029 2.526 3.369 4.679 4.679 5.053l.094.093h.093c.749.094 1.404.188 2.059.188.936 0 1.778-.188 2.339-.562l.188-.187a4.05 4.05 0 00.561-.655c4.024-4.586 13.382-15.347 13.944-38.462 0-1.871-.375-3.556-.749-5.24-.749-3.276-1.404-6.457.936-10.107.093-.187.187-.374.374-.561 1.591-2.714 2.714-4.586.936-7.861-1.965-3.65-4.773-6.457-6.457-8.142 3.556 1.404 10.107 3.837 13.756 4.024 2.808 7.487 4.211 15.628 4.211 24.144.094 38.742-31.443 70.186-69.998 70.186-36.029 0-65.88-27.326-69.718-62.419 4.773.281 7.955 2.246 10.762 6.27zm102.845-45.76c.281.186.562.56.936.841 1.497 1.404 3.837 3.556 6.832 7.487 2.526 3.462 4.585 6.738 2.713 9.451-2.901 4.68-3.743 8.142-3.088 13.102 2.995 18.529-8.235 38.836-10.762 41.737-2.807.655-5.147-3.463-5.147-3.463-1.59-4.024-2.994-8.328-2.713-13.382.374-5.802-.094-17.967-4.399-21.898-1.31-1.123-4.211-.187-7.486.749-3.743 1.123-7.861 2.433-9.733.749-5.053-4.773-5.989-24.8-3.93-27.139 1.404-1.778 4.773-3.837 8.329-6.082 5.427-3.37 11.604-7.113 12.914-11.137v-.374c0-.187 0-.468.093-.842.188-1.217.562-3.37-1.122-5.709-.562-1.029-3.276-3.275-3.276-3.275-1.778-1.404-4.679-3.369-8.235-4.305-4.211-1.216-8.609-2.246-12.727-.28-.842.28-1.123.842-1.216 1.216-.188.842.561 1.591.655 1.778l.374.374c1.684 2.06 3.65 4.212 5.053 6.458.749 1.029.843 1.497-.093 3.275-.375.561-1.404 1.684-2.059 2.34 0-.468-.094-1.123-.187-2.246-.375-2.06-4.866-6.458-6.551-7.674l-.093-.094h-.562c-.468-.093-1.216-.187-1.778.187-6.083 3.463-3.743 11.137-1.404 16.845-.842 1.872-2.246 4.492-3.088 4.679h-.187c-1.217-.842-2.34-1.872-3.275-2.714-1.498-1.404-2.433-2.152-3.276-1.871-.374.093-.655.093-1.03-.094-1.216-.842-1.87-3.65-1.87-4.866v-.094c-.188-1.31 2.058-3.65 3.743-5.427 1.123-1.217 2.058-2.153 2.526-2.995 1.31-2.246 1.685-4.024 1.217-5.615-.562-1.778-2.153-2.714-3.37-3.462-.28-.188-.56-.281-.841-.468-3.182-1.778-8.516-6.083-10.95-9.546a69.454 69.454 0 0125.08-4.679c27.326 0 51.002 15.722 62.606 38.556-6.738.842-10.949.842-17.593-1.966-.562-.187-1.123 0-1.404.375-.094.468-.094 1.123.374 1.497z"/></g><defs><clipPath id="clip0_2_2"><path fill="#fff" d="M0 0h211.9v237.9H0z"/></clipPath></defs></svg>